<svg width="30" height="30" fill="none" xmlns="http://www.w3.org/2000/svg"><path fill-rule="evenodd" clip-rule="evenodd" d="M15.014 30C23.25 30 30 23.25 30 15.014 30 6.748 23.25 0 15.014 0 6.748 0 0 6.75 0 15.014 0 23.25 6.75 30 15.014 30Z" fill="#fff"/><path d="M20 6.13v2.856h-1.817c-.664 0-1.111.13-1.343.389-.231.26-.347.649-.347 1.168v2.045h3.391l-.451 3.202h-2.94V24h-3.542v-8.21H10v-3.202h2.951V10.23c0-1.342.402-2.382 1.204-3.121C14.958 6.369 16.026 6 17.361 6c1.134 0 2.014.043 2.639.13Z" fill="url(#a)"/><defs><linearGradient id="a" x1="15" y1="23.474" x2="15" y2="6" gradientUnits="userSpaceOnUse"><stop stop-color="#0062E0"/><stop offset="1" stop-color="#19AFFF"/></linearGradient></defs></svg>