<svg width="30" height="30" fill="none" xmlns="http://www.w3.org/2000/svg"><path fill-rule="evenodd" clip-rule="evenodd" d="M15.014 30C23.25 30 30 23.25 30 15.014 30 6.748 23.25 0 15.014 0 6.748 0 0 6.75 0 15.014 0 23.25 6.75 30 15.014 30Z" fill="#fff"/><path fill-rule="evenodd" clip-rule="evenodd" d="M10.637 22.992c-.357-.012-.817-.04-1.026-.083a3.45 3.45 0 0 1-.87-.29 3.102 3.102 0 0 1-1.358-1.355 3.441 3.441 0 0 1-.29-.866c-.043-.212-.071-.675-.084-1.034A14.398 14.398 0 0 1 7 18.94L7 11.06c0-.087.002-.277.008-.424.012-.357.04-.817.082-1.026a3.45 3.45 0 0 1 .29-.87 3.104 3.104 0 0 1 1.356-1.358c.25-.127.549-.225.866-.29.211-.043.675-.071 1.034-.084.147-.005.337-.008.424-.008L18.938 7c.088 0 .278.002.425.008.356.012.816.04 1.025.082.32.065.62.163.871.29a3.105 3.105 0 0 1 1.358 1.356c.127.25.225.549.29.866.043.211.07.675.084 1.034.005.147.008.337.008.424L23 18.938c0 .088-.003.278-.008.425-.013.357-.04.816-.083 1.025a3.45 3.45 0 0 1-.29.871 3.104 3.104 0 0 1-1.355 1.358 3.44 3.44 0 0 1-.866.29c-.212.043-.675.071-1.034.084-.147.005-.337.008-.424.008L11.06 23c-.087 0-.277-.003-.424-.008Z" fill="url(#a)"/><path fill-rule="evenodd" clip-rule="evenodd" d="M15.033 9.058c-1.607 0-1.809.007-2.44.036-.63.029-1.06.13-1.437.276-.39.152-.72.356-1.048.687-.33.33-.532.663-.683 1.054-.147.378-.247.811-.275 1.444-.029.635-.036.838-.036 2.455 0 1.616.007 1.818.036 2.453.029.634.129 1.066.275 1.445.151.391.353.723.682 1.054.33.331.66.535 1.049.687.376.147.806.247 1.436.276.631.03.833.037 2.44.037 1.608 0 1.809-.008 2.44-.037.63-.029 1.06-.129 1.438-.276.389-.152.718-.356 1.047-.687.33-.33.532-.663.683-1.054.146-.379.246-.811.275-1.445.029-.635.036-.837.036-2.453 0-1.617-.007-1.82-.036-2.454-.03-.634-.13-1.066-.275-1.445a2.923 2.923 0 0 0-.683-1.054 2.89 2.89 0 0 0-1.048-.687c-.377-.147-.807-.247-1.438-.276-.63-.029-.832-.036-2.44-.036h.002Zm-.53 1.073h.53c1.58 0 1.768.005 2.392.034.577.026.89.123 1.099.205.276.108.473.237.68.445.207.208.335.407.443.684.08.21.177.525.204 1.105.028.628.034.816.034 2.404 0 1.589-.006 1.777-.035 2.405-.026.58-.122.895-.203 1.104a1.842 1.842 0 0 1-.443.684 1.83 1.83 0 0 1-.68.445c-.209.082-.522.179-1.1.205-.623.029-.81.035-2.39.035-1.581 0-1.769-.006-2.392-.035-.577-.026-.89-.123-1.1-.205a1.832 1.832 0 0 1-.68-.445 1.846 1.846 0 0 1-.443-.684c-.081-.21-.178-.525-.204-1.105-.028-.627-.034-.816-.034-2.405 0-1.59.006-1.777.034-2.404.027-.58.123-.896.204-1.105.107-.278.236-.476.443-.685.207-.208.404-.337.68-.445.21-.082.523-.179 1.1-.206.546-.024.757-.032 1.86-.033v.002Zm2.98 1.702c0-.395.317-.714.71-.714.391 0 .71.32.71.714a.712.712 0 0 1-.71.714.712.712 0 0 1-.71-.714Zm-2.45.12a3.048 3.048 0 0 0-3.04 3.057 3.048 3.048 0 0 0 3.04 3.056 3.047 3.047 0 0 0 3.04-3.056 3.048 3.048 0 0 0-3.04-3.057Zm1.973 3.057a1.978 1.978 0 0 0-1.973-1.984c-1.09 0-1.973.888-1.973 1.984 0 1.095.883 1.984 1.973 1.984s1.973-.889 1.973-1.984Z" fill="#fff"/><defs><radialGradient id="a" cx="0" cy="0" r="1" gradientUnits="userSpaceOnUse" gradientTransform="rotate(-90 17.741 6.491) scale(15.8575)"><stop stop-color="#FD5"/><stop offset=".1" stop-color="#FD5"/><stop offset=".5" stop-color="#FF543E"/><stop offset="1" stop-color="#C837AB"/></radialGradient></defs></svg>