<?xml version="1.0" standalone="no"?>
<!DOCTYPE svg PUBLIC "-//W3C//DTD SVG 20010904//EN"
 "http://www.w3.org/TR/2001/REC-SVG-20010904/DTD/svg10.dtd">
<svg version="1.0" xmlns="http://www.w3.org/2000/svg"
 width="128.000000pt" height="128.000000pt" viewBox="0 0 128.000000 128.000000"
 preserveAspectRatio="xMidYMid meet">

<g transform="translate(0.000000,128.000000) scale(0.100000,-0.100000)"
fill="#000000" stroke="none">
<path d="M63 1260 c-54 -33 -78 -102 -52 -153 6 -12 111 -122 232 -244 l222
-223 -222 -223 c-121 -122 -226 -232 -232 -244 -47 -93 69 -209 162 -162 12 6
122 111 244 232 l223 222 227 -227 c146 -145 238 -229 256 -233 99 -25 190 80
146 168 -6 12 -111 122 -232 244 l-222 223 227 227 c147 148 229 238 233 256
23 92 -60 175 -152 152 -18 -4 -110 -88 -256 -233 l-227 -227 -223 222 c-122
121 -232 226 -244 232 -33 16 -74 13 -110 -9z"/>
</g>
</svg>
