<svg width="88" height="15" xmlns="http://www.w3.org/2000/svg" xmlns:xlink="http://www.w3.org/1999/xlink"><defs><path d="M8 10.709l3.184 1.674-.608-3.546 2.576-2.511-3.56-.517L8 2.582 6.408 5.81l-3.56.517 2.576 2.511-.608 3.546L8 10.709zM8 12l-4.702 2.472.898-5.236L.392 5.528l5.257-.764L8 0l2.351 4.764 5.257.764-3.804 3.708.898 5.236L8 12z" id="a"/></defs><g fill="none" fill-rule="evenodd"><path d="M12.038 13.558l-.771-4.496 3.267-3.185-4.515-.656L8 1.13 5.98 5.22l-4.514.657 3.267 3.185-.771 4.496L8 11.435l4.038 2.123zM30.038 13.558l-.771-4.496 3.267-3.185-4.515-.656L26 1.13l-2.02 4.09-4.514.657 3.267 3.185-.771 4.496L26 11.435l4.038 2.123zM48.038 13.558l-.771-4.496 3.267-3.185-4.515-.656L44 1.13l-2.02 4.09-4.514.657 3.267 3.185-.771 4.496L44 11.435l4.038 2.123zM66.038 13.558l-.771-4.496 3.267-3.185-4.515-.656L62 1.13l-2.02 4.09-4.514.657 3.267 3.185-.771 4.496L62 11.435l4.038 2.123z" stroke="#FFD30B"/><g transform="translate(72)"><mask id="b" fill="#fff"><use xlink:href="#a"/></mask><g mask="url(#b)" fill="#FFD30B" fill-rule="nonzero"><path d="M0 0h16v16H0z"/></g></g></g></svg>