<svg width="88" height="15" xmlns="http://www.w3.org/2000/svg" xmlns:xlink="http://www.w3.org/1999/xlink"><defs><path id="a" d="M8 12l-4.702 2.472.898-5.236L.392 5.528l5.257-.764L8 0l2.351 4.764 5.257.764-3.804 3.708.898 5.236z"/><path id="c" d="M8 12l-4.702 2.472.898-5.236L.392 5.528l5.257-.764L8 0l2.351 4.764 5.257.764-3.804 3.708.898 5.236z"/><path id="e" d="M8 12l-4.702 2.472.898-5.236L.392 5.528l5.257-.764L8 0l2.351 4.764 5.257.764-3.804 3.708.898 5.236z"/><path id="g" d="M8 12l-4.702 2.472.898-5.236L.392 5.528l5.257-.764L8 0l2.351 4.764 5.257.764-3.804 3.708.898 5.236z"/><path id="i" d="M8 12l-4.702 2.472.898-5.236L.392 5.528l5.257-.764L8 0l2.351 4.764 5.257.764-3.804 3.708.898 5.236z"/></defs><g fill="none" fill-rule="evenodd"><g><mask id="b" fill="#fff"><use xlink:href="#a"/></mask><g mask="url(#b)" fill="#FFD30B" fill-rule="nonzero"><path d="M0 0h16v16H0z"/></g></g><g transform="translate(18)"><mask id="d" fill="#fff"><use xlink:href="#c"/></mask><g mask="url(#d)" fill="#FFD30B" fill-rule="nonzero"><path d="M0 0h16v16H0z"/></g></g><g transform="translate(36)"><mask id="f" fill="#fff"><use xlink:href="#e"/></mask><g mask="url(#f)" fill="#FFD30B" fill-rule="nonzero"><path d="M0 0h16v16H0z"/></g></g><g transform="translate(54)"><mask id="h" fill="#fff"><use xlink:href="#g"/></mask><g mask="url(#h)" fill="#FFD30B" fill-rule="nonzero"><path d="M0 0h16v16H0z"/></g></g><g transform="translate(72)"><mask id="j" fill="#fff"><use xlink:href="#i"/></mask><g mask="url(#j)" fill="#FFD30B" fill-rule="nonzero"><path d="M0 0h16v16H0z"/></g></g></g></svg>