<svg width="82" height="13" viewBox="0 0 82 13" xmlns="http://www.w3.org/2000/svg"><title>Rate_empty</title><g fill="#d6d4d4"><path d="M75 10.5l-4.114 2.163.786-4.582-3.329-3.245 4.6-.668 2.057-4.168 2.057 4.168 4.6.668-3.329 3.245.786 4.582zM58 10.5l-4.114 2.163.786-4.582-3.329-3.245 4.6-.668 2.057-4.168 2.057 4.168 4.6.668-3.329 3.245.786 4.582zM41 10.5l-4.114 2.163.786-4.582-3.329-3.245 4.6-.668 2.057-4.168 2.057 4.168 4.6.668-3.329 3.245.786 4.582zM24 10.5l-4.114 2.163.786-4.582-3.329-3.245 4.6-.668 2.057-4.168 2.057 4.168 4.6.668-3.329 3.245.786 4.582zM7 10.5l-4.114 2.163.786-4.582-3.329-3.245 4.6-.668 2.057-4.168 2.057 4.168 4.6.668-3.329 3.245.786 4.582z"/></g></svg>