<svg width="25px" height="25px" viewBox="0 0 20 20" version="1.1" xmlns="http://www.w3.org/2000/svg" xmlns:xlink="http://www.w3.org/1999/xlink">
    <g id="Page-1" stroke="none" stroke-width="1" fill="none" fill-rule="evenodd">
        <g id="Testimonials" transform="translate(-553.000000, -86.000000)">
            <g id="Testimonial-1" transform="translate(328.000000, 45.000000)">
                <g id="Stars-sitjabber" transform="translate(130.000000, 41.000000)">
                    <g id="stra_sj-1" transform="translate(95.000000, 0.000000)">
                        <circle id="Oval" fill="#ef6a23" cx="10" cy="10" r="10"></circle>
                        <path d="M10,13.6317197 L7.41769854,15.1048477 C6.93798334,15.3785113 6.32724914,15.2114735 6.05358554,14.7317583 C5.93290264,14.5202087 5.89357251,14.271888 5.94297635,14.0333993 L6.54602933,11.1222631 L6.54602933,11.1222631 L4.34702628,9.12157007 C3.93851658,8.7499005 3.90865175,8.11744024 4.28032131,7.70893054 C4.44422386,7.52878186 4.66823719,7.41464137 4.91032003,7.38793016 L7.86532873,7.06187706 L7.86532873,7.06187706 L9.08857156,4.35225273 C9.31581388,3.8488847 9.9080906,3.62504059 10.4114586,3.85228292 C10.6334389,3.9524945 10.8112169,4.13027248 10.9114284,4.35225273 L12.1346713,7.06187706 L12.1346713,7.06187706 L15.08968,7.38793016 C15.6386331,7.44850118 16.0345451,7.94261817 15.9739741,8.49157135 C15.9472629,8.7336542 15.8331224,8.95766752 15.6529737,9.12157007 L13.4539707,11.1222631 L13.4539707,11.1222631 L14.0570237,14.0333993 C14.1690531,14.5742023 13.8214634,15.1034275 13.2806604,15.2154569 C13.0421717,15.2648608 12.793851,15.2255306 12.5823015,15.1048477 L10,13.6317197 L10,13.6317197 Z" id="Star" fill="#FFFFFF"></path>
                    </g>
                </g>
            </g>
        </g>
    </g>
</svg>